<?xml version="1.0" standalone="no"?>
<svg viewBox="0 0 200 200" xmlns="http://www.w3.org/2000/svg">
  <path fill="#F0EEEF" d="M33.3,-53.6C44.8,-51.2,56.6,-45.4,62.3,-35.9C68,-26.4,67.5,-13.2,62.6,-2.9C57.6,7.5,48.2,14.9,45.2,29.1C42.2,43.2,45.5,64,39.1,75C32.6,86.1,16.3,87.5,2.2,83.7C-11.9,79.9,-23.8,70.9,-30.7,60C-37.5,49.2,-39.2,36.4,-42.7,26.1C-46.2,15.8,-51.4,7.9,-56.1,-2.7C-60.7,-13.3,-64.8,-26.5,-62.2,-38.4C-59.7,-50.3,-50.4,-60.8,-38.9,-63.2C-27.5,-65.6,-13.7,-59.9,-1.4,-57.5C11,-55.1,21.9,-56,33.3,-53.6Z" transform="translate(100 100)" />
</svg>
